<?xml version="1.0" standalone="no"?>
<!DOCTYPE svg PUBLIC "-//W3C//DTD SVG 20010904//EN"
 "http://www.w3.org/TR/2001/REC-SVG-20010904/DTD/svg10.dtd">
<svg version="1.0" xmlns="http://www.w3.org/2000/svg"
 width="960.000000pt" height="960.000000pt" viewBox="0 0 960.000000 960.000000"
 preserveAspectRatio="xMidYMid meet">
<metadata>
Created by potrace 1.11, written by Peter Selinger 2001-2013
</metadata>
<g transform="translate(0.000000,960.000000) scale(0.100000,-0.100000)"
fill="#000000" stroke="none">
<path d="M5650 8121 c-58 -4 -110 -10 -117 -14 -13 -8 -206 -25 -433 -37 -125
-6 -187 -15 -255 -33 -197 -55 -337 -111 -440 -176 -98 -61 -175 -106 -256
-148 -42 -22 -96 -59 -120 -83 -38 -37 -117 -92 -234 -165 -16 -10 -73 -53
-125 -95 -52 -43 -122 -95 -155 -115 -94 -60 -251 -203 -348 -318 -106 -126
-246 -356 -267 -441 -6 -22 -19 -61 -29 -86 -27 -68 -42 -109 -58 -170 -8 -30
-20 -77 -28 -105 -17 -63 -22 -499 -7 -635 11 -101 32 -230 57 -349 24 -113
14 -282 -18 -306 -38 -28 -42 -85 -11 -146 13 -25 11 -28 -38 -69 -66 -57
-136 -152 -144 -198 -3 -20 -12 -58 -20 -85 -23 -82 -29 -285 -11 -364 29
-123 46 -217 56 -306 9 -78 18 -102 81 -232 39 -79 83 -159 98 -176 29 -35 46
-60 129 -185 29 -44 59 -89 68 -102 26 -35 124 -104 171 -118 23 -7 53 -19 66
-27 13 -9 43 -21 68 -27 56 -15 103 -50 135 -99 24 -40 69 -216 79 -311 3 -30
16 -106 28 -167 19 -98 21 -117 9 -145 -7 -18 -16 -46 -20 -63 -4 -18 -17 -35
-33 -42 -14 -7 -37 -28 -52 -47 -27 -36 -217 -205 -326 -291 -35 -27 -89 -73
-119 -101 -79 -72 -193 -151 -260 -179 -69 -30 -216 -86 -336 -130 -49 -18
-136 -52 -193 -75 -64 -25 -218 -70 -405 -116 -550 -137 -543 -134 -642 -173
-44 -17 -96 -34 -115 -37 -19 -4 -71 -23 -115 -42 -44 -19 -114 -45 -155 -59
-72 -24 -113 -47 -280 -156 -160 -105 -187 -128 -370 -323 -36 -38 -87 -86
-113 -107 -46 -37 -47 -40 -47 -93 l0 -54 1649 0 1649 0 13 33 c7 17 28 57 47
87 18 30 46 82 62 115 48 101 181 562 210 730 7 39 23 106 36 150 78 270 119
533 98 635 -6 28 -8 50 -5 50 3 0 26 -20 51 -44 25 -24 67 -56 94 -70 27 -15
63 -38 80 -51 17 -13 62 -40 100 -60 39 -20 84 -47 100 -60 42 -31 113 -62
172 -75 71 -16 340 -125 404 -164 30 -18 66 -37 80 -40 14 -4 34 -11 45 -16
230 -105 305 -135 380 -155 50 -14 122 -33 161 -44 39 -10 118 -22 175 -26 57
-4 130 -13 161 -21 142 -35 458 -37 720 -4 70 9 359 29 365 26 1 -1 -3 -30 -8
-66 -29 -193 -18 -348 31 -454 16 -34 38 -91 49 -128 40 -127 84 -209 154
-281 l66 -67 1230 0 1231 0 0 179 0 178 -58 17 c-32 9 -69 16 -83 17 -13 0
-64 23 -114 50 -49 26 -162 84 -250 128 -214 107 -297 154 -375 210 -95 69
-279 178 -330 196 -25 9 -67 26 -95 40 -246 118 -344 149 -605 191 -65 10
-176 17 -292 18 -103 1 -189 4 -191 7 -6 6 98 177 126 208 13 14 43 60 67 101
24 41 57 95 74 119 16 24 36 63 45 85 9 23 29 62 44 86 60 93 147 245 147 256
0 6 13 36 29 66 46 85 119 261 127 304 7 41 37 117 85 220 16 33 33 84 39 113
5 28 14 59 19 69 18 33 61 177 61 202 0 15 7 46 15 71 35 108 57 344 57 624 1
154 -4 304 -11 350 -15 105 -16 450 -2 545 7 41 16 120 20 175 5 55 14 101 20
103 29 10 77 51 95 82 20 33 21 48 18 235 -2 127 -8 231 -18 285 -10 51 -17
154 -19 256 -2 121 -7 185 -18 220 -8 27 -18 72 -22 99 -16 124 -39 208 -92
325 -88 198 -162 316 -277 441 -92 100 -160 181 -181 214 -40 62 -90 117 -170
184 -45 39 -111 105 -145 148 -35 43 -84 96 -109 118 -25 21 -86 78 -136 125
-114 109 -242 204 -325 242 -36 16 -85 40 -110 53 -63 32 -273 101 -345 114
-33 5 -96 10 -140 10 -44 0 -111 5 -150 11 -155 24 -260 40 -265 38 -3 -1 -52
-4 -110 -7z m-1036 -1682 c57 -50 64 -63 81 -147 20 -101 53 -229 78 -301 26
-78 69 -124 146 -159 47 -22 71 -26 146 -27 109 0 129 8 245 106 103 85 144
110 235 140 99 32 173 58 225 80 25 11 97 35 160 55 113 35 117 36 241 30 69
-3 146 -12 170 -20 24 -8 76 -20 114 -27 95 -15 171 -41 294 -100 150 -72 161
-74 339 -61 185 12 197 18 269 127 90 137 91 138 132 130 86 -16 152 -76 191
-172 16 -40 32 -90 36 -110 4 -21 21 -72 39 -113 28 -64 68 -171 155 -415 9
-27 22 -68 29 -91 7 -25 35 -68 76 -115 35 -41 62 -80 60 -87 -3 -8 -5 -20 -5
-27 0 -9 -12 -3 -32 15 -17 16 -45 34 -62 40 -17 7 -60 24 -96 40 -107 47
-160 54 -286 40 -119 -13 -183 -35 -229 -80 -16 -16 -42 -32 -58 -35 -32 -8
-57 -40 -57 -72 0 -42 23 -72 75 -99 47 -25 55 -26 83 -15 17 7 35 25 42 42 7
16 27 42 46 58 27 24 45 30 107 36 41 4 94 4 117 0 39 -7 153 -52 190 -76 8
-5 32 -17 52 -26 l38 -16 -6 -76 c-3 -42 -9 -101 -14 -131 -30 -178 -35 -548
-11 -715 19 -128 14 -526 -9 -692 -12 -81 -27 -168 -35 -192 -8 -25 -15 -57
-15 -72 0 -15 -18 -78 -40 -139 -22 -61 -40 -120 -40 -131 0 -10 -15 -51 -34
-91 -65 -140 -74 -163 -82 -203 -12 -68 -92 -262 -123 -299 -5 -6 -17 -32 -25
-57 -17 -49 -116 -226 -158 -281 -14 -18 -31 -51 -38 -73 -7 -22 -30 -66 -51
-97 -22 -31 -39 -60 -39 -63 0 -12 -92 -144 -157 -226 -18 -23 -33 -45 -33
-51 0 -6 -11 -7 -25 -4 -25 7 -64 -7 -77 -28 -4 -6 -15 -36 -24 -66 -33 -115
-75 -131 -429 -160 -60 -5 -153 -13 -205 -19 -142 -17 -392 -15 -470 4 -36 8
-112 19 -170 25 -58 5 -123 12 -144 15 -50 7 -282 73 -321 90 -140 65 -303
135 -312 135 -6 0 -40 17 -74 38 -35 21 -89 48 -119 59 -30 12 -91 35 -135 53
-44 18 -110 41 -147 51 -74 20 -131 47 -191 90 -22 16 -45 29 -52 29 -7 0 -48
24 -91 53 -43 29 -99 64 -124 79 -120 71 -202 212 -244 419 -13 68 -27 162
-30 209 -3 47 -12 105 -20 130 -31 90 -66 292 -67 384 0 50 -4 127 -10 171 -5
44 -14 121 -20 170 -14 119 -18 477 -7 590 5 50 14 144 19 210 15 208 45 496
61 595 5 36 14 99 19 140 10 83 75 301 117 394 34 75 117 159 205 210 86 50
205 151 256 219 50 66 70 114 86 202 33 177 46 227 83 325 22 58 43 121 46
140 4 19 17 56 28 83 27 60 49 61 112 6z m-1643 -1930 c36 -19 278 -269 318
-328 21 -31 54 -88 72 -126 28 -61 33 -81 34 -155 1 -47 5 -106 9 -131 4 -25
9 -126 10 -225 2 -98 8 -215 14 -259 15 -112 31 -265 32 -299 0 -28 0 -29 -46
-22 -26 3 -61 14 -78 25 -17 10 -47 24 -67 30 -53 17 -97 53 -135 112 -19 28
-69 101 -112 161 -142 203 -222 382 -222 496 0 33 -14 105 -46 240 -23 99 6
319 51 388 57 87 116 120 166 93z"/>
<path d="M5218 5479 c-10 -5 -59 -19 -109 -30 -56 -12 -124 -36 -180 -65 -58
-29 -106 -46 -136 -48 -56 -4 -83 -31 -83 -85 0 -20 -7 -45 -15 -55 -8 -11
-15 -30 -15 -43 0 -31 25 -79 45 -87 35 -13 101 -6 135 16 71 44 167 91 245
119 78 29 84 30 280 31 192 0 360 -13 412 -33 13 -5 44 -9 68 -9 51 0 205 -42
238 -65 32 -22 74 -19 102 10 58 57 6 146 -130 224 -92 53 -290 101 -418 101
-29 0 -77 7 -107 15 -64 17 -305 20 -332 4z"/>
<path d="M5470 4758 c-48 -25 -90 -89 -90 -138 0 -42 42 -113 79 -134 21 -12
53 -20 81 -20 28 0 60 8 81 20 37 21 79 92 79 134 0 14 -10 46 -22 70 -25 48
-89 90 -138 90 -14 0 -46 -10 -70 -22z m159 -57 c8 -14 7 -22 -4 -31 -19 -16
-45 -6 -45 18 0 36 33 45 49 13z"/>
<path d="M7430 4648 c-48 -25 -90 -89 -90 -138 0 -42 42 -113 79 -134 21 -12
53 -20 81 -20 28 0 60 8 81 20 37 21 79 92 79 134 0 14 -10 46 -22 70 -25 48
-89 90 -138 90 -14 0 -46 -10 -70 -22z m159 -57 c8 -14 7 -22 -4 -31 -19 -16
-45 -6 -45 18 0 36 33 45 49 13z"/>
<path d="M6998 3284 c-30 -16 -58 -61 -58 -94 0 -53 57 -110 110 -110 53 0
110 57 110 110 0 34 -28 78 -60 95 -36 19 -67 19 -102 -1z"/>
<path d="M6498 3274 c-30 -16 -58 -61 -58 -94 0 -53 57 -110 110 -110 53 0
110 57 110 110 0 34 -28 78 -60 95 -36 19 -67 19 -102 -1z"/>
<path d="M7320 2435 c-14 -7 -44 -36 -68 -63 -44 -52 -134 -112 -170 -112 -11
0 -42 -9 -69 -21 -43 -19 -58 -20 -158 -14 -130 9 -228 11 -350 7 -81 -3 -186
4 -400 26 -91 9 -161 43 -183 88 -31 65 -115 64 -158 -1 -41 -63 9 -138 132
-201 76 -39 99 -43 344 -64 58 -5 123 -12 145 -15 22 -4 97 -2 167 3 78 6 146
6 175 0 26 -5 102 -10 168 -11 101 -1 129 2 175 20 30 11 69 23 87 27 95 16
283 187 283 257 0 34 -23 68 -53 79 -37 12 -36 12 -67 -5z"/>
<path d="M6122 1940 c-30 -13 -46 -51 -38 -93 11 -61 59 -91 230 -146 123 -39
134 -41 255 -41 101 0 144 5 220 25 51 14 100 30 107 36 8 6 26 8 44 4 64 -14
120 38 105 98 -11 43 -40 61 -109 65 -51 3 -79 -2 -157 -29 -118 -41 -226 -49
-322 -25 -93 24 -197 63 -229 86 -34 25 -75 33 -106 20z"/>
<path d="M3045 4139 c-11 -5 -35 -38 -52 -72 -38 -73 -52 -177 -52 -382 0
-163 15 -220 71 -282 51 -55 85 -73 136 -73 97 0 122 110 35 156 -64 34 -74
56 -77 184 -3 149 10 274 35 314 36 59 19 137 -34 156 -35 12 -36 12 -62 -1z"/>
<path d="M4824 848 c-23 -10 -44 -47 -44 -75 0 -27 47 -98 84 -126 19 -15 56
-35 84 -46 27 -11 81 -39 118 -62 89 -54 137 -75 226 -99 40 -10 99 -26 131
-34 68 -19 281 -22 354 -5 202 45 313 116 313 200 0 27 -44 69 -72 69 -12 0
-63 -20 -113 -45 -49 -25 -115 -51 -145 -58 -90 -20 -240 -13 -358 17 -122 32
-167 50 -247 102 -33 22 -91 52 -128 68 -38 16 -67 34 -67 43 0 7 -11 25 -25
38 -26 27 -72 32 -111 13z"/>
</g>
</svg>
